<?xml version="1.0" encoding="iso-8859-1"?><!-- Generator: Adobe Illustrator 19.2.0, SVG Export Plug-In . SVG Version: 6.00 Build 0)  --><svg xmlns="http://www.w3.org/2000/svg" xmlns:xlink="http://www.w3.org/1999/xlink" viewBox="0 0 40 40" width="100px" height="100px"><g><polygon style="fill:#DFF0FE;" points="3.5,38.5 3.5,13.286 19.998,3.58 36.5,13.286 36.5,38.5  "/><g><path style="fill:#4788C7;" d="M19.998,4.16L36,13.572V38H4V13.572L19.998,4.16 M19.998,3L3,13v26h34V13L19.998,3L19.998,3z"/></g></g><g><polygon style="fill:#B6DCFE;" points="19.998,4.645 1.5,15.955 1.5,12.896 19.998,1.586 38.5,12.896 38.5,15.955  "/><g><path style="fill:#4788C7;" d="M19.998,2.172L38,13.176v1.887L20.519,4.378l-0.522-0.319l-0.522,0.319L2,15.063v-1.887    L19.998,2.172 M19.998,1L1,12.615v4.231L19.998,5.231L39,16.846v-4.231L19.998,1L19.998,1z"/></g></g><g><rect x="14.5" y="21.5" style="fill:#B6DCFE;" width="11" height="17"/><path style="fill:#4788C7;" d="M25,22v16H15V22H25 M26,21H14v18h12V21L26,21z"/></g><circle style="fill:#4788C7;" cx="23" cy="31" r="1"/></svg>